# xmcd
# 
# Track frame offsets:
#     150
#     24773
#     47038
#     66425
#     88554
#     110470
#     133798
#     152458
#     176856
#     199072
#     218886
#     245077
#     266860
#     286309
#     305425
# 
# Disc length: 4380
# 
# Revision: 0
# Processed by: cddbd v1.5.2PL0 Copyright (c) Steve Scherf et al.
# Submitted via: BonkEnc v1.0.8
# 
DISCID=dc111a0f
DTITLE=Every Little Thing - Every Best Singles 2
DYEAR=0
DGENRE=J-Pop
TTITLE0=Pray
TTITLE1=sure
TTITLE2=Rescue me
TTITLE3=愛のカケラ
TTITLE4=fragile
TTITLE5=Graceful World
TTITLE6=jump
TTITLE7=キヲク
TTITLE8=ささやかな祈り
TTITLE9=UNSPEAKABLE
TTITLE10=nostalgia
TTITLE11=Grip!
TTITLE12=ファンダメンタル・ラブ
TTITLE13=For the moment（Acoustic Version）
TTITLE14=出逢った頃のように（Acoustic Version）
EXTD=
EXTT0=
EXTT1=
EXTT2=
EXTT3=
EXTT4=
EXTT5=
EXTT6=
EXTT7=
EXTT8=
EXTT9=
EXTT10=
EXTT11=
EXTT12=
EXTT13=
EXTT14=
PLAYORDER=
